Patient4_TMGait_0pt4_03_left_11_GRF.mot
version=1
nRows=26
nColumns=19
inDegrees=no
endheader
time	F1x	F1y	F1z	M1x	M1y	M1z	F2x	F2y	F2z	M2x	M2y	M2z	EC1x	EC1y	EC1z	EC2x	EC2y	EC2z
14.03	-2.7311	7.9985	-6.0559	-1.0654	3.7069	-3.1903	-33.4386	742.1657	-76.0147	277.0345	83.9797	786.7269	-0.0592	0.0182	-0.0073	-0.0462	0.0165	0.9585
14.0438	-1.9397	6.0005	-4.0163	-0.89086	2.3916	-1.5948	-28.7245	737.3032	-72.8019	273.8868	81.2229	779.8296	-0.0592	0.0182	-0.0073	-0.0462	0.0165	0.9585
14.0576	-1.241	4.296	-2.2847	-0.75603	1.2796	-0.20962	-24.2859	732.6437	-69.5955	270.9674	78.1433	772.5765	-0.0592	0.0182	-0.0073	-0.0462	0.0165	0.9585
14.0714	-0.6884	2.9956	-0.9582	-0.66716	0.42962	0.87236	-20.3466	729.3614	-66.643	268.7824	74.9691	766.1995	-0.0592	0.0182	-0.0073	-0.0462	0.0165	0.9585
14.0851	-0.3042	2.1013	-0.03308	-0.61941	-0.16598	1.6485	-16.9367	728.5776	-64.1086	267.7524	71.9051	761.8886	-0.0592	0.0182	-0.0073	-0.0462	0.0165	0.9585
14.0989	-0.071469	1.5528	0.54797	-0.60197	-0.5462	2.1486	-13.984	731.0565	-62.0561	268.1306	69.0748	760.4769	-0.0592	0.0182	-0.0073	-0.0462	0.0165	0.9585
14.1127	0.030543	1.2504	0.86836	-0.59804	-0.76673	2.4082	-11.387	737.0168	-60.5024	269.9509	66.5629	762.2609	-0.0592	0.0182	-0.0073	-0.0462	0.0165	0.9585
14.1265	0.027922	1.0843	1.0108	-0.58999	-0.88364	2.4587	-9.0407	746.0643	-59.4	273.0149	64.3846	766.9251	-0.0592	0.0182	-0.0073	-0.0462	0.0165	0.9585
14.1403	-0.047346	0.94121	1.0488	-0.55656	-0.94832	2.2966	-6.87	757.2302	-58.6997	276.9115	62.5448	773.5877	-0.0592	0.0182	-0.0073	-0.0462	0.0165	0.9585
14.1541	-0.17058	0.7278	1.037	-0.47761	-1.0002	1.9237	-4.8299	769.1103	-58.3223	281.0755	61.0105	780.9424	-0.0592	0.0182	-0.0073	-0.0462	0.0165	0.9585
14.1679	-0.31658	0.35414	1.0107	-0.33285	-1.0609	1.3185	-2.8962	780.0898	-58.2047	284.8711	59.7562	787.4824	-0.0592	0.0182	-0.0073	-0.0462	0.0165	0.9585
14.1816	-0.46629	-0.25537	0.99366	-0.1047	-1.1407	0.44741	-1.047	788.6074	-58.2815	287.6922	58.7411	791.7473	-0.0592	0.0182	-0.0073	-0.0462	0.0165	0.9585
14.1954	-0.59543	-1.1322	0.98843	0.21377	-1.2289	-0.70052	0.73801	793.424	-58.5034	289.0637	57.9249	792.5776	-0.0592	0.0182	-0.0073	-0.0462	0.0165	0.9585
14.2092	-0.66765	-2.2564	0.98777	0.6152	-1.2972	-2.0989	2.4723	793.8986	-58.8229	288.7463	57.2532	789.3822	-0.0592	0.0182	-0.0073	-0.0462	0.0165	0.9585
14.223	-0.62906	-3.5152	0.96125	1.0607	-1.287	-3.6241	4.1819	790.121	-59.2215	286.7831	56.6873	782.2657	-0.0592	0.0182	-0.0073	-0.0462	0.0165	0.9585
14.2368	-0.40605	-4.6687	0.86393	1.4683	-1.1156	-5.0102	5.8818	782.8515	-59.7027	283.4749	56.211	771.9678	-0.0592	0.0182	-0.0073	-0.0462	0.0165	0.9585
14.2506	0.094672	-5.301	0.63351	1.6967	-0.67733	-5.7862	7.5702	773.2956	-60.2723	279.2911	55.8177	759.6423	-0.0592	0.0182	-0.0073	-0.0462	0.0165	0.9585
14.2644	0.9709	-4.7802	0.18908	1.5297	0.15265	-5.2254	9.2639	762.8186	-60.9391	274.7613	55.5043	746.5812	-0.0592	0.0182	-0.0073	-0.0462	0.0165	0.9585
14.2781	2.3192	-2.2444	-0.54732	0.67172	1.4968	-2.3321	10.9952	752.677	-61.6939	270.3732	55.252	733.9625	-0.0592	0.0182	-0.0073	-0.0462	0.0165	0.9585
14.2919	4.1871	3.3959	-1.6512	-1.2467	3.4563	4.1608	12.8071	743.7565	-62.5241	266.4739	55.037	722.5997	-0.0592	0.0182	-0.0073	-0.0462	0.0165	0.9585
14.3057	6.5285	13.3435	-3.1552	-4.631	6.0493	15.6531	14.7361	736.4196	-63.3836	263.2146	54.8033	712.8053	-0.0592	0.0182	-0.0073	-0.0462	0.0165	0.9585
14.3195	9.144	28.6948	-5.0234	-9.8518	9.1514	33.4281	16.795	730.4575	-64.2094	260.5318	54.4859	704.3631	-0.0592	0.0182	-0.0073	-0.0462	0.0165	0.9585
14.3333	11.569	50.0687	-7.0739	-17.1191	12.3811	58.2324	18.9452	725.1267	-64.8794	258.1654	53.9832	696.5703	-0.0592	0.0182	-0.0073	-0.0462	0.0165	0.9585
14.3471	13.0007	77.0397	-8.9282	-26.283	15.0085	89.591	21.0854	719.2765	-65.2458	255.7056	53.1956	688.363	-0.0592	0.0182	-0.0073	-0.0462	0.0165	0.9585
14.3609	12.2995	107.4626	-9.9476	-36.5999	15.8951	125.0517	23.0824	711.5657	-65.1369	252.6716	52.0224	678.5146	-0.0592	0.0182	-0.0073	-0.0462	0.0165	0.9585
14.3746	8.8074	137.3913	-9.3126	-46.6914	13.8653	160.111	24.806	700.7327	-64.4384	248.6066	50.4217	665.8795	-0.0592	0.0182	-0.0073	-0.0462	0.0165	0.9585
